<?xml version="1.0" encoding="UTF-8" standalone="no"?>
<!DOCTYPE svg PUBLIC "-//W3C//DTD SVG 1.1//EN" "http://www.w3.org/Graphics/SVG/1.1/DTD/svg11.dtd">
<svg version="1.1" xmlns="http://www.w3.org/2000/svg" xmlns:xlink="http://www.w3.org/1999/xlink" preserveAspectRatio="xMidYMid meet" viewBox="0 0 2560 1440" width="2560" height="1440"><defs><path d="M0 0L2560 0L2560 1440L0 1440L0 0Z" id="b6xmv4wMD"></path><path d="M0 0L2560 0L2560 89.74C2533.86 86.23 2481.32 162.54 2402.37 318.68C2283.95 552.89 2347.11 829.21 1878.68 850.26C1410.26 871.32 1265.53 571.32 1141.84 571.32C1018.16 571.32 941.84 679.21 973.42 831.84C1005 984.47 807.63 1210.79 470.79 1147.63C246.23 1105.53 89.3 993.25 0 810.79L0 0Z" id="a4ibN91Krg"></path><linearGradient id="gradientauiMybcn9" gradientUnits="userSpaceOnUse" x1="585.26" y1="263.16" x2="2185.26" y2="650.6"><stop style="stop-color: #4a00e0;stop-opacity: 1" offset="0%"></stop><stop style="stop-color: #8e2de2;stop-opacity: 1" offset="100%"></stop></linearGradient></defs><g><g><g><use xlink:href="#b6xmv4wMD" opacity="1" fill="#fafafa" fill-opacity="1"></use></g><g><use xlink:href="#a4ibN91Krg" opacity="1" fill="url(#gradientauiMybcn9)"></use><g><use xlink:href="#a4ibN91Krg" opacity="1" fill-opacity="0" stroke="#000000" stroke-width="1" stroke-opacity="1"></use></g><g><filter id="shadow9464999" x="-72" y="-72" width="2709" height="1307.49" filterUnits="userSpaceOnUse" primitiveUnits="userSpaceOnUse"><feFlood></feFlood><feComposite in2="SourceAlpha" operator="out"></feComposite><feGaussianBlur stdDeviation="5.48"></feGaussianBlur><feOffset dx="-5" dy="-5" result="afterOffset"></feOffset><feFlood flood-color="#363636" flood-opacity="0.8"></feFlood><feComposite in2="afterOffset" operator="in"></feComposite><feMorphology operator="dilate" radius="2"></feMorphology><feComposite in2="SourceAlpha" operator="in"></feComposite></filter><path d="M0 0L2560 0L2560 89.74C2533.86 86.23 2481.32 162.54 2402.37 318.68C2283.95 552.89 2347.11 829.21 1878.68 850.26C1410.26 871.32 1265.53 571.32 1141.84 571.32C1018.16 571.32 941.84 679.21 973.42 831.84C1005 984.47 807.63 1210.79 470.79 1147.63C246.23 1105.53 89.3 993.25 0 810.79L0 0Z" id="lCIJnN0CV" fill="white" fill-opacity="1" filter="url(#shadow9464999)"></path></g></g></g></g></svg>