<?xml version="1.0" standalone="no"?>
<!DOCTYPE svg PUBLIC "-//W3C//DTD SVG 20010904//EN"
 "http://www.w3.org/TR/2001/REC-SVG-20010904/DTD/svg10.dtd">
<svg version="1.0" xmlns="http://www.w3.org/2000/svg"
 width="1178.000000pt" height="560.000000pt" viewBox="0 0 1178.000000 560.000000"
 preserveAspectRatio="xMidYMid meet">
<metadata>
Created by potrace 1.16, written by Peter Selinger 2001-2019
</metadata>
<g transform="translate(0.000000,560.000000) scale(0.100000,-0.100000)"
fill="#000000" stroke="none">
<path d="M2645 5583 c-599 -49 -1110 -249 -1561 -609 -121 -96 -326 -300 -418
-414 -164 -205 -330 -490 -425 -728 -185 -464 -240 -998 -155 -1507 80 -480
305 -956 630 -1334 445 -517 1048 -846 1739 -948 169 -24 581 -24 750 0 430
64 815 209 1157 437 182 121 280 201 434 354 431 430 698 960 789 1563 8 54
15 108 15 121 l0 22 -613 0 -612 0 -29 -113 c-73 -289 -200 -511 -416 -727
-222 -224 -480 -363 -800 -431 -152 -33 -448 -33 -600 0 -320 68 -578 207
-800 431 -63 63 -141 152 -173 196 -142 200 -239 444 -276 691 -16 103 -14
352 4 458 119 726 712 1268 1448 1321 l97 7 0 608 0 609 -72 -2 c-40 -1 -91
-3 -113 -5z"/>
<path d="M8370 4495 l0 -1095 -1095 0 -1095 0 0 -595 0 -595 1095 0 1095 0 0
-1095 0 -1095 595 0 595 0 0 1095 0 1095 1095 0 1095 0 0 595 0 595 -1095 0
-1095 0 0 1095 0 1095 -595 0 -595 0 0 -1095z"/>
</g>
</svg>
