<?xml version="1.0" standalone="no"?>
<!DOCTYPE svg PUBLIC "-//W3C//DTD SVG 20010904//EN"
 "http://www.w3.org/TR/2001/REC-SVG-20010904/DTD/svg10.dtd">
<svg version="1.0" xmlns="http://www.w3.org/2000/svg"
 width="563.000000pt" height="563.000000pt" viewBox="0 0 563.000000 563.000000"
 preserveAspectRatio="xMidYMid meet">
<metadata>
Created by potrace 1.16, written by Peter Selinger 2001-2019
</metadata>
<g transform="translate(0.000000,563.000000) scale(0.100000,-0.100000)"
fill="#000000" stroke="none">
<path d="M2601 5579 c-544 -45 -1061 -247 -1497 -587 -121 -94 -307 -273 -411
-397 -238 -282 -439 -660 -543 -1017 -76 -263 -104 -468 -104 -768 0 -247 9
-350 49 -555 212 -1069 1042 -1923 2105 -2165 231 -53 341 -64 625 -64 279 0
388 10 615 60 1005 222 1820 1011 2081 2013 27 106 60 281 73 394 l6 47 -617
-2 -616 -3 -14 -67 c-21 -107 -80 -263 -144 -388 -168 -324 -453 -585 -794
-725 -329 -136 -732 -151 -1071 -39 -92 30 -267 111 -339 157 -170 107 -336
262 -447 418 -336 470 -389 1068 -142 1586 137 286 387 548 674 705 169 92
399 160 609 179 l131 12 0 609 0 608 -62 -1 c-35 -1 -110 -6 -167 -10z"/>
</g>
</svg>
